<svg xmlns="http://www.w3.org/2000/svg" viewBox="257 257 1535 1535" width="1024" height="1024">
<defs>
	<linearGradient gradientUnits="userSpaceOnUse" id="Gradient1" x1="768.768" x2="808.505" y1="1163.4" y2="1226.63">
		<stop class="stop0" offset="0" stop-color="rgb(49,62,69)" stop-opacity="1"></stop>
		<stop class="stop1" offset="1" stop-color="rgb(112,159,174)" stop-opacity="1"></stop>
	</linearGradient>
	<linearGradient gradientUnits="userSpaceOnUse" id="Gradient2" x1="524.571" x2="535.653" y1="1594.61" y2="1611.22">
		<stop class="stop0" offset="0" stop-color="rgb(107,149,164)" stop-opacity="1"></stop>
		<stop class="stop1" offset="1" stop-color="rgb(122,179,194)" stop-opacity="1"></stop>
	</linearGradient>
	<linearGradient gradientUnits="userSpaceOnUse" id="Gradient3" x1="513.562" x2="697.045" y1="1272.96" y2="1332.88">
		<stop class="stop0" offset="0" stop-color="rgb(30,36,40)" stop-opacity="1"></stop>
		<stop class="stop1" offset="1" stop-color="rgb(102,134,148)" stop-opacity="1"></stop>
	</linearGradient>
	<linearGradient gradientUnits="userSpaceOnUse" id="Gradient4" x1="767.934" x2="613.327" y1="1604.3" y2="1462.72">
		<stop class="stop0" offset="0" stop-color="rgb(6,0,0)" stop-opacity="1"></stop>
		<stop class="stop1" offset="1" stop-color="rgb(159,233,252)" stop-opacity="1"></stop>
	</linearGradient>
	<linearGradient gradientUnits="userSpaceOnUse" id="Gradient5" x1="551.473" x2="768.236" y1="1178.59" y2="1594.77">
		<stop class="stop0" offset="0" stop-color="rgb(27,31,34)" stop-opacity="1"></stop>
		<stop class="stop1" offset="1" stop-color="rgb(61,70,78)" stop-opacity="1"></stop>
	</linearGradient>
	<linearGradient gradientUnits="userSpaceOnUse" id="Gradient6" x1="1392.22" x2="1409.95" y1="1728.17" y2="1458.06">
		<stop class="stop0" offset="0" stop-color="rgb(0,0,0)" stop-opacity="1"></stop>
		<stop class="stop1" offset="1" stop-color="rgb(97,140,156)" stop-opacity="1"></stop>
	</linearGradient>
	<linearGradient gradientUnits="userSpaceOnUse" id="Gradient7" x1="564.543" x2="515.723" y1="478.683" y2="454.464">
		<stop class="stop0" offset="0" stop-color="rgb(56,70,77)" stop-opacity="1"></stop>
		<stop class="stop1" offset="1" stop-color="rgb(121,178,198)" stop-opacity="1"></stop>
	</linearGradient>
	<linearGradient gradientUnits="userSpaceOnUse" id="Gradient8" x1="572.539" x2="672.525" y1="521.081" y2="510.84">
		<stop class="stop0" offset="0" stop-color="rgb(74,94,105)" stop-opacity="1"></stop>
		<stop class="stop1" offset="1" stop-color="rgb(95,146,161)" stop-opacity="1"></stop>
	</linearGradient>
	<linearGradient gradientUnits="userSpaceOnUse" id="Gradient9" x1="957.874" x2="1006.87" y1="656.019" y2="295.253">
		<stop class="stop0" offset="0" stop-color="rgb(181,198,205)" stop-opacity="1"></stop>
		<stop class="stop1" offset="1" stop-color="rgb(88,234,255)" stop-opacity="1"></stop>
	</linearGradient>
	<linearGradient gradientUnits="userSpaceOnUse" id="Gradient10" x1="1279.91" x2="1241.04" y1="868.078" y2="941.818">
		<stop class="stop0" offset="0" stop-color="rgb(139,244,255)" stop-opacity="1"></stop>
		<stop class="stop1" offset="1" stop-color="rgb(49,47,58)" stop-opacity="1"></stop>
	</linearGradient>
	<linearGradient gradientUnits="userSpaceOnUse" id="Gradient11" x1="1419.25" x2="1152.89" y1="958.845" y2="426.599">
		<stop class="stop0" offset="0" stop-color="rgb(9,11,12)" stop-opacity="1"></stop>
		<stop class="stop1" offset="1" stop-color="rgb(92,104,116)" stop-opacity="1"></stop>
	</linearGradient>
</defs>
<path d="M 401.645 314.04 L 835.416 314.56 C 900.21 314.038 965.007 314.001 1029.8 314.447 C 1100.42 314.668 1159.39 311.85 1229.15 327.417 C 1314.71 346.511 1383.57 377.434 1446.4 439.979 C 1487.47 480.863 1512.2 522.307 1531.9 576.843 C 1534.03 582.75 1540.69 602.58 1540.87 607.751 C 1546.09 622.604 1549.56 648.259 1551.54 664.276 C 1552.74 673.797 1553.3 683.387 1553.23 692.983 C 1560.65 783.034 1525.21 889.308 1466.67 957.713 C 1418.47 1014.04 1352.59 1051.11 1280.32 1066.36 C 1260.53 1070.67 1243.81 1072.16 1224.06 1075.12 C 1219.68 1074.63 1201.01 1076.03 1195.76 1076.33 C 1191.41 1078.63 1179.56 1075.84 1174.79 1077.97 C 1165.91 1079.61 1128.07 1078.9 1116.27 1078.91 L 989.128 1078.9 C 983.552 1078.89 956.857 1078.34 953.071 1079.95 L 952.271 1076.6 C 940.338 1076.97 909.866 1075.76 901.149 1077.14 C 899.561 1075.25 816.283 1075.15 810.827 1078.06 L 810.432 1078.12 C 801.545 1074.08 765.424 1076.11 754.665 1077.32 L 753.143 1076.73 L 753.394 1075.93 L 758.295 1075.39 C 764.585 1065.71 794.932 1044.12 793.426 1035.81 C 787.252 1035.96 782.924 1036.39 776.812 1035.11 C 793.886 1032.6 832.312 1033.49 851.144 1033.57 C 893.137 1033.75 935.13 1033.7 977.122 1033.41 C 1085.88 1033.45 1161.27 1037.9 1229.41 936.834 C 1237.93 918.828 1242.22 908.486 1248.13 889.19 C 1250.78 880.906 1253.61 863.809 1256.59 857.08 C 1257.91 843.226 1261.39 829.464 1262.58 814.216 C 1266.73 761.289 1249.36 701.997 1215.19 661.165 C 1189.75 630.749 1151.79 611.875 1113.74 602.688 C 1081.4 594.881 1038.77 597.005 1004.63 596.94 L 858.183 596.908 C 830.297 596.913 797.683 597.774 770.35 595.908 C 732.676 595.614 676.995 585.006 642.828 569.531 C 633.723 566.909 611.463 555.186 603.755 549.671 C 590.939 543.433 559.863 520.965 550.649 510.103 C 540.796 502.07 528.461 488.913 519.776 479.493 C 515.745 475.094 512.422 471.568 509.161 466.447 C 504.669 462.502 471.501 413.129 466.362 404.82 C 444.404 375.574 424.393 343.266 401.645 314.04 z" fill="rgb(58,67,74)" transform="translate(0,0)"></path>
<path d="M 1165.6 575.605 L 1166.81 574.826 C 1180.76 579.386 1208.23 595.174 1219.19 604.617 L 1219.87 605.207 L 1222.13 605.043 C 1235.12 594.867 1241.94 603.937 1252.89 596.443 C 1270.97 583.765 1291.11 573.921 1309.38 561.732 C 1337.48 542.973 1362.19 521.567 1392.5 506.301 C 1411.18 496.895 1405.38 476.086 1392.79 464.463 C 1386.91 459.04 1379.98 446.831 1372.19 441.943 C 1346.02 424.877 1317.45 408.859 1289.13 395.616 C 1280.1 391.392 1267.52 391.229 1258.46 383.585 C 1256.91 382.284 1250.11 382.267 1248.36 379.77 C 1253.58 378.51 1263.39 383.58 1268.75 384.99 C 1315.04 397.165 1356.89 422.152 1393.81 452.182 L 1394.3 450.502 C 1434.5 483.898 1465.1 527.386 1482.95 576.508 C 1488.32 590.932 1491.85 604.709 1496.37 619.313 C 1498.61 630.333 1501.69 643.773 1502.92 654.755 C 1503.49 661.447 1504.84 668.315 1505.04 674.987 L 1508.75 676.864 L 1509.11 678.186 C 1509.12 680.318 1509.08 681.823 1508.94 683.943 C 1511.48 699.553 1508.69 716.519 1509.89 730.565 L 1510.95 729.786 C 1511.94 724.375 1511.54 714.033 1511.49 708.113 C 1519.75 700.056 1541.07 690.03 1551.98 685.035 C 1551.65 691.602 1551.86 698.703 1551.94 705.333 L 1552.56 704.098 L 1552.04 708.143 C 1552.43 703.021 1553.02 698.468 1553.23 692.983 C 1560.65 783.034 1525.21 889.308 1466.67 957.713 C 1418.47 1014.04 1352.59 1051.11 1280.32 1066.36 C 1260.53 1070.67 1243.81 1072.16 1224.06 1075.12 C 1219.68 1074.63 1201.01 1076.03 1195.76 1076.33 C 1191.41 1078.63 1179.56 1075.84 1174.79 1077.97 C 1165.91 1079.61 1128.07 1078.9 1116.27 1078.91 L 989.128 1078.9 C 983.552 1078.89 956.857 1078.34 953.071 1079.95 L 952.271 1076.6 C 940.338 1076.97 909.866 1075.76 901.149 1077.14 C 899.561 1075.25 816.283 1075.15 810.827 1078.06 L 810.432 1078.12 C 801.545 1074.08 765.424 1076.11 754.665 1077.32 L 753.143 1076.73 L 753.394 1075.93 L 758.295 1075.39 C 764.585 1065.71 794.932 1044.12 793.426 1035.81 C 787.252 1035.96 782.924 1036.39 776.812 1035.11 C 793.886 1032.6 832.312 1033.49 851.144 1033.57 C 893.137 1033.75 935.13 1033.7 977.122 1033.41 C 1085.88 1033.45 1161.27 1037.9 1229.41 936.834 C 1237.93 918.828 1242.22 908.486 1248.13 889.19 C 1250.78 880.906 1253.61 863.809 1256.59 857.08 C 1259.41 859.687 1256.33 860.564 1256.37 863.321 C 1257.5 864.622 1257.16 863.622 1258.57 863.916 C 1264.19 865.113 1267.56 871.853 1272.43 874.891 C 1275.33 876.704 1277.62 879.636 1280.94 881.247 C 1284.13 882.794 1285.54 884.973 1287.3 887.747 C 1287.89 888.682 1288.5 889.581 1289.56 890.058 C 1290.53 889.847 1292.56 886.51 1293.15 885.671 C 1295.58 879.15 1299.17 861.516 1300.43 854.352 C 1309.33 803.784 1307.03 758.448 1289.73 709.674 C 1264.68 639.057 1230.91 607.118 1165.6 575.605 z" fill="url(#Gradient11)" transform="translate(0,0)"></path>
<path d="M 1551.98 685.035 C 1551.65 691.602 1551.86 698.703 1551.94 705.333 L 1552.56 704.098 L 1552.04 708.143 C 1552.43 703.021 1553.02 698.468 1553.23 692.983 C 1560.65 783.034 1525.21 889.308 1466.67 957.713 C 1418.47 1014.04 1352.59 1051.11 1280.32 1066.36 C 1260.53 1070.67 1243.81 1072.16 1224.06 1075.12 C 1219.68 1074.63 1201.01 1076.03 1195.76 1076.33 C 1191.41 1078.63 1179.56 1075.84 1174.79 1077.97 C 1165.91 1079.61 1128.07 1078.9 1116.27 1078.91 L 989.128 1078.9 C 983.552 1078.89 956.857 1078.34 953.071 1079.95 L 952.271 1076.6 C 940.338 1076.97 909.866 1075.76 901.149 1077.14 C 899.561 1075.25 816.283 1075.15 810.827 1078.06 L 810.432 1078.12 C 801.545 1074.08 765.424 1076.11 754.665 1077.32 L 753.143 1076.73 L 753.394 1075.93 L 758.295 1075.39 C 764.585 1065.71 794.932 1044.12 793.426 1035.81 C 787.252 1035.96 782.924 1036.39 776.812 1035.11 C 793.886 1032.6 832.312 1033.49 851.144 1033.57 C 893.137 1033.75 935.13 1033.7 977.122 1033.41 C 1085.88 1033.45 1161.27 1037.9 1229.41 936.834 C 1237.93 918.828 1242.22 908.486 1248.13 889.19 C 1250.78 880.906 1253.61 863.809 1256.59 857.08 C 1259.41 859.687 1256.33 860.564 1256.37 863.321 C 1257.5 864.622 1257.16 863.622 1258.57 863.916 C 1264.19 865.113 1267.56 871.853 1272.43 874.891 C 1275.33 876.704 1277.62 879.636 1280.94 881.247 C 1284.13 882.794 1285.54 884.973 1287.3 887.747 C 1287.89 888.682 1288.5 889.581 1289.56 890.058 C 1290.53 889.847 1292.56 886.51 1293.15 885.671 C 1291.14 893.211 1289.39 900.785 1286.65 908.153 L 1285.47 911.798 C 1284.63 914.458 1284.35 914.911 1283.04 917.412 L 1282.92 917.968 C 1280.52 925.503 1270.43 946.647 1265.68 953.355 C 1263.45 957.643 1261.79 960.06 1259.03 964.048 L 1255.6 968.023 C 1253.56 971.661 1242.91 986.075 1239.84 988.25 C 1237.8 990.802 1236.93 991.749 1234.59 994.016 C 1229.24 1001.74 1198.69 1029.2 1198.31 1031.49 L 1204.95 1032.44 C 1206.5 1032.35 1207.98 1032.26 1209.54 1032.21 C 1281.57 1025.73 1341.58 1011.51 1399.29 963.867 C 1468.68 906.587 1497.56 828.811 1506.09 742.173 L 1508.46 746.057 C 1509.29 742.296 1509.09 735.666 1509.89 730.565 L 1510.95 729.786 C 1511.94 724.375 1511.54 714.033 1511.49 708.113 C 1519.75 700.056 1541.07 690.03 1551.98 685.035 z" fill="rgb(58,67,74)" transform="translate(0,0)"></path>
<path d="M 1248.13 889.19 C 1250.78 880.906 1253.61 863.809 1256.59 857.08 C 1259.41 859.687 1256.33 860.564 1256.37 863.321 C 1257.5 864.622 1257.16 863.622 1258.57 863.916 C 1264.19 865.113 1267.56 871.853 1272.43 874.891 C 1275.33 876.704 1277.62 879.636 1280.94 881.247 C 1284.13 882.794 1285.54 884.973 1287.3 887.747 C 1287.89 888.682 1288.5 889.581 1289.56 890.058 C 1290.53 889.847 1292.56 886.51 1293.15 885.671 C 1291.14 893.211 1289.39 900.785 1286.65 908.153 L 1285.47 911.798 C 1284.63 914.458 1284.35 914.911 1283.04 917.412 L 1282.92 917.968 C 1280.52 925.503 1270.43 946.647 1265.68 953.355 C 1266.39 946.569 1271.34 940.236 1273.85 934.568 C 1272.6 932.657 1263.28 929.527 1260.55 928.998 C 1252.49 927.433 1246.55 924.08 1239.3 920.43 C 1237.07 925.076 1234.28 935.75 1229.41 936.834 C 1237.93 918.828 1242.22 908.486 1248.13 889.19 z" fill="url(#Gradient10)" transform="translate(0,0)"></path>
<path d="M 1273.91 906.047 L 1275.89 906.153 C 1282.14 906.382 1280.26 909.22 1286.65 908.153 L 1285.47 911.798 C 1281.65 911.141 1275.13 910.371 1273.91 906.047 z" fill="rgb(100,159,179)" transform="translate(0,0)"></path>
<path d="M 1282.92 917.968 C 1279.94 918.913 1274.74 917.797 1275.58 914.527 L 1277.34 914.632 L 1277.29 914.582 C 1279.17 917.076 1280.15 916.67 1283.04 917.412 L 1282.92 917.968 z" fill="rgb(77,142,160)" transform="translate(0,0)"></path>
<path d="M 1506.09 742.173 L 1508.46 746.057 C 1498.06 837.915 1468.99 915.605 1394.38 976.579 C 1349.87 1012.95 1267.57 1037.37 1210.05 1035.07 C 1205.58 1034.5 1201.93 1034.76 1197.7 1034.38 L 1197.83 1034.27 C 1203.72 1034.08 1204.69 1035.76 1209.54 1032.21 C 1281.57 1025.73 1341.58 1011.51 1399.29 963.867 C 1468.68 906.587 1497.56 828.811 1506.09 742.173 z" fill="rgb(106,221,240)" transform="translate(0,0)"></path>
<path d="M 952.271 1076.6 C 958.722 1075.6 974.98 1075.84 981.978 1075.86 L 1029.61 1076.01 C 1085 1075.73 1140.38 1075.84 1195.76 1076.33 C 1191.41 1078.63 1179.56 1075.84 1174.79 1077.97 C 1165.91 1079.61 1128.07 1078.9 1116.27 1078.91 L 989.128 1078.9 C 983.552 1078.89 956.857 1078.34 953.071 1079.95 L 952.271 1076.6 z" fill="rgb(109,178,195)" transform="translate(0,0)"></path>
<path d="M 1204.95 1032.44 C 1206.5 1032.35 1207.98 1032.26 1209.54 1032.21 C 1204.69 1035.76 1203.72 1034.08 1197.83 1034.27 L 1197.7 1034.38 C 1201.93 1034.76 1205.58 1034.5 1210.05 1035.07 C 1207.33 1035.55 1187.08 1037.27 1186.41 1035.23 C 1186.3 1034.88 1186.39 1034.49 1186.65 1034.22 C 1188.66 1032.19 1200.47 1032.91 1204.95 1032.44 z" fill="rgb(109,178,195)" transform="translate(0,0)"></path>
<path d="M 1234.59 994.016 C 1234.41 989.251 1235.26 988.487 1239.84 988.25 C 1237.8 990.802 1236.93 991.749 1234.59 994.016 z" fill="rgb(58,67,74)" transform="translate(0,0)"></path>
<path d="M 1505.04 674.987 L 1508.75 676.864 L 1509.11 678.186 C 1509.12 680.318 1509.08 681.823 1508.94 683.943 C 1511.48 699.553 1508.69 716.519 1509.89 730.565 C 1509.09 735.666 1509.29 742.296 1508.46 746.057 L 1506.09 742.173 C 1505.82 736.695 1506.66 728.965 1506.9 723 C 1507.27 713.841 1506.42 702.991 1506.89 694.227 C 1505.96 688.31 1505.76 681.343 1505.04 674.987 z" fill="rgb(109,178,195)" transform="translate(0,0)"></path>
<path d="M 401.645 314.04 L 835.416 314.56 C 900.21 314.038 965.007 314.001 1029.8 314.447 C 1100.42 314.668 1159.39 311.85 1229.15 327.417 C 1314.71 346.511 1383.57 377.434 1446.4 439.979 C 1487.47 480.863 1512.2 522.307 1531.9 576.843 C 1534.03 582.75 1540.69 602.58 1540.87 607.751 C 1546.09 622.604 1549.56 648.259 1551.54 664.276 C 1552.74 673.797 1553.3 683.387 1553.23 692.983 C 1553.02 698.468 1552.43 703.021 1552.04 708.143 L 1552.56 704.098 L 1551.94 705.333 C 1551.86 698.703 1551.65 691.602 1551.98 685.035 C 1541.07 690.03 1519.75 700.056 1511.49 708.113 C 1511.54 714.033 1511.94 724.375 1510.95 729.786 L 1509.89 730.565 C 1508.69 716.519 1511.48 699.553 1508.94 683.943 C 1509.08 681.823 1509.12 680.318 1509.11 678.186 L 1508.75 676.864 L 1505.04 674.987 C 1504.84 668.315 1503.49 661.447 1502.92 654.755 C 1501.69 643.773 1498.61 630.333 1496.37 619.313 C 1491.85 604.709 1488.32 590.932 1482.95 576.508 C 1465.1 527.386 1434.5 483.898 1394.3 450.502 C 1323.24 385.307 1206.79 360.22 1113.43 358.641 C 1093.63 358.306 1073.71 358.024 1053.9 357.98 L 919.414 358.269 L 483.552 358.821 C 488.766 363.566 493.575 369.941 497.405 375.851 C 506.991 385.737 522.864 409.189 531.184 421.008 L 532.148 422.402 C 533.159 423.841 533.58 424.333 534.426 425.909 C 531.081 439.215 520.614 456.397 512.367 467.374 C 512.417 467.307 509.545 466.489 509.161 466.447 C 504.669 462.502 471.501 413.129 466.362 404.82 C 444.404 375.574 424.393 343.266 401.645 314.04 z" fill="url(#Gradient9)" transform="translate(0,0)"></path>
<path d="M 497.405 375.851 C 506.991 385.737 522.864 409.189 531.184 421.008 L 532.148 422.402 C 533.159 423.841 533.58 424.333 534.426 425.909 C 531.081 439.215 520.614 456.397 512.367 467.374 C 512.417 467.307 509.545 466.489 509.161 466.447 C 504.669 462.502 471.501 413.129 466.362 404.82 C 474.399 409.411 478.995 423.41 485.07 427.531 C 491.413 424.449 519.365 405.709 511.535 397.336 C 506.108 391.534 499.659 383.037 497.405 375.851 z" fill="rgb(109,178,195)" transform="translate(0,0)"></path>
<path d="M 1502.92 654.755 C 1507.58 662.158 1509.27 668.282 1508.75 676.864 L 1505.04 674.987 C 1504.84 668.315 1503.49 661.447 1502.92 654.755 z" fill="rgb(100,159,179)" transform="translate(0,0)"></path>
<path d="M 797.859 552.952 C 845.6 553.499 893.344 553.776 941.089 553.782 C 952.061 553.814 990.333 552.767 998.82 553.841 C 1018.22 552.622 1082.1 552.107 1098.49 555.96 C 1118.3 558.308 1147.02 568.448 1165.6 575.605 C 1230.91 607.118 1264.68 639.057 1289.73 709.674 C 1307.03 758.448 1309.33 803.784 1300.43 854.352 C 1299.17 861.516 1295.58 879.15 1293.15 885.671 C 1292.56 886.51 1290.53 889.847 1289.56 890.058 C 1288.5 889.581 1287.89 888.682 1287.3 887.747 C 1285.54 884.973 1284.13 882.794 1280.94 881.247 C 1277.62 879.636 1275.33 876.704 1272.43 874.891 C 1267.56 871.853 1264.19 865.113 1258.57 863.916 C 1257.16 863.622 1257.5 864.622 1256.37 863.321 C 1256.33 860.564 1259.41 859.687 1256.59 857.08 C 1257.91 843.226 1261.39 829.464 1262.58 814.216 C 1266.73 761.289 1249.36 701.997 1215.19 661.165 C 1189.75 630.749 1151.79 611.875 1113.74 602.688 C 1081.4 594.881 1038.77 597.005 1004.63 596.94 L 858.183 596.908 C 830.297 596.913 797.683 597.774 770.35 595.908 C 763.147 592.246 760.753 595.441 753.017 592.973 L 752.661 592.092 C 757.943 582.04 766.763 562.035 776.959 557.838 C 780.647 558.172 779.276 557.355 781.63 559.481 L 781.589 563.761 L 782.73 564.238 C 788.447 559.361 791.347 556.712 797.859 552.952 z" fill="rgb(106,221,240)" transform="translate(0,0)"></path>
<path d="M 534.426 425.909 C 535.583 427.44 536.545 428.69 537.806 430.154 L 540.94 434.298 C 542.293 435.925 542.307 436.045 543.582 437.777 L 548.048 443.77 C 546.328 443.97 546.403 443.993 544.716 444.685 C 544.849 445.606 544.688 445.693 545.187 446.125 C 545.17 445.862 545.153 445.599 545.136 445.336 L 545.205 445.321 C 547.59 447.383 556.072 456.548 557.497 459.158 C 560.526 462.095 563.747 465.052 566.55 468.177 L 568.12 465.816 C 596.268 491.661 614.038 505.926 649.985 522.299 C 659.796 526.768 674.304 531.958 683.158 536.263 C 672.462 536.005 669.307 538.89 662.616 548.092 C 657.238 555.489 653.299 562.123 647.181 569.042 L 642.828 569.531 C 633.723 566.909 611.463 555.186 603.755 549.671 C 590.939 543.433 559.863 520.965 550.649 510.103 C 540.796 502.07 528.461 488.913 519.776 479.493 C 515.745 475.094 512.422 471.568 509.161 466.447 C 509.545 466.489 512.417 467.307 512.367 467.374 C 520.614 456.397 531.081 439.215 534.426 425.909 z" fill="rgb(58,67,74)" transform="translate(0,0)"></path>
<path d="M 568.12 465.816 C 596.268 491.661 614.038 505.926 649.985 522.299 C 659.796 526.768 674.304 531.958 683.158 536.263 C 672.462 536.005 669.307 538.89 662.616 548.092 C 657.238 555.489 653.299 562.123 647.181 569.042 L 642.828 569.531 C 633.723 566.909 611.463 555.186 603.755 549.671 C 604.585 548.868 605.725 548.17 606.62 549.253 C 610.736 554.236 616.146 543.774 619.836 541.424 C 620.405 541.062 626.703 535.191 627.502 534.175 C 630.936 529.806 635.627 525.287 639.707 521.248 C 614.617 506.94 586.238 489.596 566.55 468.177 L 568.12 465.816 z" fill="url(#Gradient8)" transform="translate(0,0)"></path>
<path d="M 534.426 425.909 C 535.583 427.44 536.545 428.69 537.806 430.154 L 540.94 434.298 C 542.293 435.925 542.307 436.045 543.582 437.777 L 548.048 443.77 C 546.328 443.97 546.403 443.993 544.716 444.685 C 544.849 445.606 544.688 445.693 545.187 446.125 C 545.17 445.862 545.153 445.599 545.136 445.336 L 545.205 445.321 C 547.59 447.383 556.072 456.548 557.497 459.158 C 557.301 459.608 557.104 460.059 556.908 460.509 C 554.359 473.22 547.431 486.646 540.203 497.404 C 543.889 500.93 550.435 505.89 550.649 510.103 C 540.796 502.07 528.461 488.913 519.776 479.493 C 515.745 475.094 512.422 471.568 509.161 466.447 C 509.545 466.489 512.417 467.307 512.367 467.374 C 520.614 456.397 531.081 439.215 534.426 425.909 z" fill="url(#Gradient7)" transform="translate(0,0)"></path>
<path d="M 540.94 434.298 C 542.293 435.925 542.307 436.045 543.582 437.777 L 548.048 443.77 C 546.328 443.97 546.403 443.993 544.716 444.685 C 543.291 444.58 541.865 444.487 540.438 444.407 C 539.473 442.651 539.547 442.808 539.748 440.81 C 540.341 438.302 540.605 436.843 540.94 434.298 z" fill="rgb(77,142,160)" transform="translate(0,0)"></path>
<path d="M 537.806 430.154 L 540.94 434.298 C 540.605 436.843 540.341 438.302 539.748 440.81 L 539.392 441.296 C 538.902 441.947 537.137 445.202 536.276 445.11 C 535.741 444.586 536.216 443.103 536.456 442.582 C 538.618 437.894 538.113 435.321 537.806 430.154 z" fill="rgb(100,159,179)" transform="translate(0,0)"></path>
<path d="M 642.828 569.531 L 647.181 569.042 C 653.299 562.123 657.238 555.489 662.616 548.092 C 669.307 538.89 672.462 536.005 683.158 536.263 C 727.083 547.38 751.431 552.249 797.859 552.952 C 791.347 556.712 788.447 559.361 782.73 564.238 L 781.589 563.761 L 781.63 559.481 C 779.276 557.355 780.647 558.172 776.959 557.838 C 766.763 562.035 757.943 582.04 752.661 592.092 L 753.017 592.973 C 760.753 595.441 763.147 592.246 770.35 595.908 C 732.676 595.614 676.995 585.006 642.828 569.531 z" fill="rgb(109,178,195)" transform="translate(0,0)"></path>
<path d="M 548.048 443.77 C 552.935 449.672 562.365 461.083 568.12 465.816 L 566.55 468.177 C 563.747 465.052 560.526 462.095 557.497 459.158 C 556.072 456.548 547.59 447.383 545.205 445.321 L 545.136 445.336 C 545.153 445.599 545.17 445.862 545.187 446.125 C 544.688 445.693 544.849 445.606 544.716 444.685 C 546.403 443.993 546.328 443.97 548.048 443.77 z" fill="rgb(77,142,160)" transform="translate(0,0)"></path>
<path d="M 1195.76 1076.33 C 1201.01 1076.03 1219.68 1074.63 1224.06 1075.12 C 1250.08 1119.43 1281.52 1167.55 1309.59 1210.98 L 1406.59 1361.77 C 1426.07 1392.15 1453.68 1432.13 1470.72 1462.63 C 1475.8 1469.19 1516.15 1530.29 1517.48 1534.98 C 1523.89 1543.02 1534.19 1559.98 1540.05 1569.05 L 1580.85 1632.73 C 1582.17 1634 1588.76 1644.07 1590.11 1646.32 C 1607.63 1675.33 1630.33 1705.48 1646.72 1734.94 L 1550.56 1735.09 C 1497.68 1735.09 1459.63 1737.12 1407.78 1722.37 C 1354.46 1707.2 1313.36 1681.17 1274.65 1641.94 C 1265.46 1632.62 1252.57 1619.11 1246.27 1608.11 C 1244.15 1606.87 1200.88 1539.65 1196.56 1532.65 C 1188.84 1522.59 1180.1 1507.59 1172.81 1496.83 C 1169.12 1491.38 1159.15 1476.28 1156.61 1470.9 C 1152.54 1465.93 1145.34 1454.22 1141.47 1448.29 L 1112.22 1403.43 C 1077.03 1350.31 1042.32 1296.89 1008.09 1243.15 L 941.151 1140.15 C 928.078 1120.23 911.946 1098 901.149 1077.14 C 909.866 1075.76 940.338 1076.97 952.271 1076.6 L 953.071 1079.95 C 956.857 1078.34 983.552 1078.89 989.128 1078.9 L 1116.27 1078.91 C 1128.07 1078.9 1165.91 1079.61 1174.79 1077.97 C 1179.56 1075.84 1191.41 1078.63 1195.76 1076.33 z" fill="rgb(58,67,74)" transform="translate(0,0)"></path>
<path d="M 1196.47 1455.08 C 1200.21 1460.03 1223.82 1494.61 1225.56 1499.29 C 1229.98 1505.17 1234.45 1511.78 1238.39 1518.02 C 1264.65 1559.65 1287.75 1596.05 1326.6 1627.75 L 1324.42 1631.68 C 1384.4 1679.11 1447.15 1694.57 1522.49 1691.31 C 1528.86 1691.04 1562.47 1691.57 1566.51 1690.08 C 1566.23 1689.69 1565.95 1689.3 1565.67 1688.91 L 1563.81 1689.76 C 1555.76 1687.84 1535.38 1688.74 1525.96 1689.12 C 1487.28 1690.71 1423.1 1686.84 1389.81 1667.84 C 1393.89 1668.36 1408.18 1673.48 1412.94 1675.02 C 1423.63 1678.49 1434.52 1681.31 1445.55 1683.47 C 1483.59 1690.57 1523.85 1686.84 1562.11 1687 C 1557.74 1682.14 1554.23 1676.46 1550.55 1671.06 C 1530.75 1642.05 1513.81 1611.52 1495.21 1581.81 C 1480.99 1559.11 1465.3 1536.13 1451.86 1513.09 C 1440.97 1496.04 1427.17 1475.22 1417.38 1457.89 C 1422.21 1460.63 1430.16 1474.99 1433.97 1480.63 L 1435.59 1480.56 C 1446.46 1480.19 1473.09 1485.47 1479.94 1480.25 C 1480.18 1474.64 1467.55 1467.35 1470.72 1462.63 C 1475.8 1469.19 1516.15 1530.29 1517.48 1534.98 C 1523.89 1543.02 1534.19 1559.98 1540.05 1569.05 L 1580.85 1632.73 C 1582.17 1634 1588.76 1644.07 1590.11 1646.32 C 1607.63 1675.33 1630.33 1705.48 1646.72 1734.94 L 1550.56 1735.09 C 1497.68 1735.09 1459.63 1737.12 1407.78 1722.37 C 1354.46 1707.2 1313.36 1681.17 1274.65 1641.94 C 1265.46 1632.62 1252.57 1619.11 1246.27 1608.11 C 1244.15 1606.87 1200.88 1539.65 1196.56 1532.65 C 1188.84 1522.59 1180.1 1507.59 1172.81 1496.83 C 1169.12 1491.38 1159.15 1476.28 1156.61 1470.9 C 1161.44 1471.65 1168.01 1488.89 1173.29 1492.99 C 1178.33 1492.37 1203.27 1482.24 1207.34 1478.91 C 1210.17 1472.47 1198.53 1465.55 1196.47 1455.08 z" fill="url(#Gradient6)" transform="translate(0,0)"></path>
<path d="M 901.149 1077.14 C 909.866 1075.76 940.338 1076.97 952.271 1076.6 L 953.071 1079.95 C 989.736 1135.13 1025.83 1190.68 1061.36 1246.59 L 1136.29 1361.74 L 1181.93 1431.36 C 1184.07 1434.7 1195.45 1452.29 1196.47 1455.08 C 1198.53 1465.55 1210.17 1472.47 1207.34 1478.91 C 1203.27 1482.24 1178.33 1492.37 1173.29 1492.99 C 1168.01 1488.89 1161.44 1471.65 1156.61 1470.9 C 1152.54 1465.93 1145.34 1454.22 1141.47 1448.29 L 1112.22 1403.43 C 1077.03 1350.31 1042.32 1296.89 1008.09 1243.15 L 941.151 1140.15 C 928.078 1120.23 911.946 1098 901.149 1077.14 z" fill="rgb(106,221,240)" transform="translate(0,0)"></path>
<path d="M 1195.76 1076.33 C 1201.01 1076.03 1219.68 1074.63 1224.06 1075.12 C 1250.08 1119.43 1281.52 1167.55 1309.59 1210.98 L 1406.59 1361.77 C 1426.07 1392.15 1453.68 1432.13 1470.72 1462.63 C 1467.55 1467.35 1480.18 1474.64 1479.94 1480.25 C 1473.09 1485.47 1446.46 1480.19 1435.59 1480.56 L 1433.97 1480.63 C 1430.16 1474.99 1422.21 1460.63 1417.38 1457.89 C 1415.28 1455.73 1401.6 1433.54 1398.43 1428.62 C 1380.14 1400.63 1362.08 1372.48 1344.24 1344.19 L 1237.26 1176.56 C 1216.82 1144.5 1195.8 1109.29 1174.79 1077.97 C 1179.56 1075.84 1191.41 1078.63 1195.76 1076.33 z" fill="rgb(106,221,240)" transform="translate(0,0)"></path>
<path d="M 530.556 1223.81 C 558.036 1125.84 675.31 1037.13 776.812 1035.11 C 782.924 1036.39 787.252 1035.96 793.426 1035.81 C 794.932 1044.12 764.585 1065.71 758.295 1075.39 L 753.394 1075.93 L 753.143 1076.73 L 754.665 1077.32 C 765.424 1076.11 801.545 1074.08 810.432 1078.12 L 810.827 1078.06 L 810.528 1128.75 L 810.138 1230.51 C 810.069 1248.35 810.543 1269.02 809.808 1286.65 C 810.152 1301.8 810.462 1325.35 809.656 1340.4 C 810.019 1381.33 811.525 1418.93 808.843 1459.74 C 803.232 1539.81 769.703 1613.72 708.845 1667.32 C 665.8 1705.24 602.187 1732.75 544.475 1734.21 C 536.081 1735.36 519.312 1735.68 510.878 1735.28 C 510.744 1725.71 510.705 1716.98 511.027 1707.37 C 509.892 1691.4 510.317 1669.97 510.436 1653.86 C 510.403 1636.58 510.459 1619.31 510.604 1602.04 C 510.576 1581.54 510.229 1560.06 510.879 1539.63 C 510.24 1534.22 510.575 1519.28 510.584 1513.38 L 510.693 1460.1 C 510.801 1398.05 504.836 1279.06 530.556 1223.81 z" fill="url(#Gradient5)" transform="translate(0,0)"></path>
<path d="M 766.447 1299.26 C 772.61 1295.04 802.459 1278.41 808.427 1276.12 C 808.542 1280.59 808.289 1282.55 809.808 1286.65 C 810.152 1301.8 810.462 1325.35 809.656 1340.4 C 810.019 1381.33 811.525 1418.93 808.843 1459.74 C 803.232 1539.81 769.703 1613.72 708.845 1667.32 C 665.8 1705.24 602.187 1732.75 544.475 1734.21 C 536.081 1735.36 519.312 1735.68 510.878 1735.28 C 510.744 1725.71 510.705 1716.98 511.027 1707.37 C 509.892 1691.4 510.317 1669.97 510.436 1653.86 L 512.002 1652.4 C 512.416 1656.5 512.127 1662.26 512.046 1666.52 L 513.253 1666.84 C 514.118 1661.38 529.55 1639.62 535.946 1638.99 C 533.754 1644.07 527.743 1644.69 525.134 1650.51 C 522.736 1655.86 518.149 1662.07 514.883 1667.19 C 528.102 1659.23 534.722 1644.51 545.772 1638.26 C 548.739 1638.66 549.548 1638.96 552.514 1638.45 C 552.886 1637.39 553.046 1618.92 553.184 1615.98 C 553.93 1618.69 554.174 1620.56 554.627 1623.32 C 554.796 1643.42 555.603 1667.2 554.84 1687.02 L 555.667 1688.41 C 560.609 1689.58 574.644 1686.16 580.29 1684.86 C 619.709 1676.09 656.177 1657.23 686.129 1630.14 C 733.51 1587.39 762.222 1520.01 764.081 1456.72 C 764.355 1447.4 764.272 1438.1 764.745 1428.79 L 765.229 1385.38 C 764.971 1367.51 764.984 1349.64 765.267 1331.77 C 766.699 1329.01 766.392 1303.81 766.447 1299.26 z" fill="url(#Gradient4)" transform="translate(0,0)"></path>
<path d="M 764.745 1428.79 C 765.034 1433.85 765.262 1436.88 765.918 1441.89 C 767.53 1454.2 765.603 1469.34 764.45 1481.86 C 763.176 1489.1 761.937 1496.43 760.373 1503.61 C 738.127 1605.86 656.728 1681.9 551.694 1692.53 C 550.419 1688.94 551.064 1682.91 551.257 1678.98 C 551.597 1672.45 553.124 1655.37 552.581 1649.71 L 553.974 1648.7 C 555.345 1657.5 553.777 1676.37 554.84 1687.02 L 555.667 1688.41 C 560.609 1689.58 574.644 1686.16 580.29 1684.86 C 619.709 1676.09 656.177 1657.23 686.129 1630.14 C 733.51 1587.39 762.222 1520.01 764.081 1456.72 C 764.355 1447.4 764.272 1438.1 764.745 1428.79 z" fill="rgb(77,142,160)" transform="translate(0,0)"></path>
<path d="M 530.556 1223.81 C 558.036 1125.84 675.31 1037.13 776.812 1035.11 C 782.924 1036.39 787.252 1035.96 793.426 1035.81 C 794.932 1044.12 764.585 1065.71 758.295 1075.39 L 753.394 1075.93 L 753.143 1076.73 L 754.665 1077.32 C 721.722 1086.37 713.786 1084.91 679.756 1102.05 C 553.74 1174.42 548.294 1300.03 551.227 1428.16 C 552.019 1462.76 552.23 1500.62 551.63 1535.27 C 550.029 1537.73 550.315 1539.29 550.258 1542.24 C 551.249 1551.5 550.609 1570.95 550.658 1581.15 C 534.871 1585.91 528.665 1595.51 514.527 1602.37 C 514.378 1602.45 511.22 1602.18 510.604 1602.04 C 510.576 1581.54 510.229 1560.06 510.879 1539.63 C 510.24 1534.22 510.575 1519.28 510.584 1513.38 L 510.693 1460.1 C 510.801 1398.05 504.836 1279.06 530.556 1223.81 z" fill="url(#Gradient3)" transform="translate(0,0)"></path>
<path d="M 754.665 1077.32 C 765.424 1076.11 801.545 1074.08 810.432 1078.12 C 802.696 1080.21 775.611 1077.68 768.343 1082.11 C 767.974 1082.33 768.034 1084.9 768.03 1085.56 L 766.422 1084.95 C 765.065 1091.84 766.729 1098.32 765.238 1104.17 L 765.028 1082.97 C 611.715 1114.69 550.084 1228.55 554.161 1376.56 C 554.538 1390.22 553.175 1407 554.841 1420.16 C 554.081 1437.43 555.1 1457.19 554.881 1474.76 C 554.266 1524.14 555.342 1573.98 554.627 1623.32 C 554.174 1620.56 553.93 1618.69 553.184 1615.98 C 553.046 1618.92 552.886 1637.39 552.514 1638.45 C 549.548 1638.96 548.739 1638.66 545.772 1638.26 C 534.722 1644.51 528.102 1659.23 514.883 1667.19 C 518.149 1662.07 522.736 1655.86 525.134 1650.51 C 527.743 1644.69 533.754 1644.07 535.946 1638.99 C 529.55 1639.62 514.118 1661.38 513.253 1666.84 L 512.046 1666.52 C 512.127 1662.26 512.416 1656.5 512.002 1652.4 L 510.436 1653.86 C 510.403 1636.58 510.459 1619.31 510.604 1602.04 C 511.22 1602.18 514.378 1602.45 514.527 1602.37 C 528.665 1595.51 534.871 1585.91 550.658 1581.15 C 550.609 1570.95 551.249 1551.5 550.258 1542.24 C 550.315 1539.29 550.029 1537.73 551.63 1535.27 C 552.23 1500.62 552.019 1462.76 551.227 1428.16 C 548.294 1300.03 553.74 1174.42 679.756 1102.05 C 713.786 1084.91 721.722 1086.37 754.665 1077.32 z" fill="rgb(106,221,240)" transform="translate(0,0)"></path>
<path d="M 550.258 1542.24 C 550.315 1539.29 550.029 1537.73 551.63 1535.27 C 551.771 1553.86 553.288 1575.67 551.572 1593.83 C 550.958 1600.32 519.063 1624.16 512.495 1627.13 C 512.442 1633.05 512.683 1647.13 512.002 1652.4 L 510.436 1653.86 C 510.403 1636.58 510.459 1619.31 510.604 1602.04 C 511.22 1602.18 514.378 1602.45 514.527 1602.37 C 528.665 1595.51 534.871 1585.91 550.658 1581.15 C 550.609 1570.95 551.249 1551.5 550.258 1542.24 z" fill="url(#Gradient2)" transform="translate(0,0)"></path>
<path d="M 768.081 1154.66 C 769.979 1159.92 769.355 1158.67 769.516 1164.4 C 775.169 1163.93 801.772 1143.04 808.006 1138.88 C 809.679 1137.76 806.734 1133.77 810.528 1128.75 L 810.138 1230.51 C 810.069 1248.35 810.543 1269.02 809.808 1286.65 C 808.289 1282.55 808.542 1280.59 808.427 1276.12 C 808.897 1259.99 808.798 1243.26 809 1227.05 C 800.646 1232.7 779.194 1246.58 769.863 1249.67 L 768.348 1248.8 C 766.699 1243.73 767.658 1220.72 767.677 1213.96 C 767.617 1194.19 767.752 1174.42 768.081 1154.66 z" fill="url(#Gradient1)" transform="translate(0,0)"></path>
<path d="M 810.432 1078.12 L 810.827 1078.06 L 810.528 1128.75 C 806.734 1133.77 809.679 1137.76 808.006 1138.88 C 801.772 1143.04 775.169 1163.93 769.516 1164.4 C 769.355 1158.67 769.979 1159.92 768.081 1154.66 C 766.527 1137.22 768.648 1105.15 768.03 1085.56 C 768.034 1084.9 767.974 1082.33 768.343 1082.11 C 775.611 1077.68 802.696 1080.21 810.432 1078.12 z" fill="rgb(58,67,74)" transform="translate(0,0)"></path>
<path d="M 765.238 1104.17 C 766.729 1098.32 765.065 1091.84 766.422 1084.95 L 768.03 1085.56 C 768.648 1105.15 766.527 1137.22 768.081 1154.66 C 767.752 1174.42 767.617 1194.19 767.677 1213.96 C 767.658 1220.72 766.699 1243.73 768.348 1248.8 L 769.863 1249.67 C 779.194 1246.58 800.646 1232.7 809 1227.05 C 808.798 1243.26 808.897 1259.99 808.427 1276.12 C 802.459 1278.41 772.61 1295.04 766.447 1299.26 C 766.392 1303.81 766.699 1329.01 765.267 1331.77 C 764.263 1319.3 765.643 1298.95 764.952 1284.65 C 765.989 1272.42 765.1 1241.26 765.099 1227.77 L 765.238 1104.17 z" fill="rgb(109,178,195)" transform="translate(0,0)"></path>
<metadata><recraft-signature>{"signed_by": "recraft", "signature_b64": "aYi8OxeDH5zbIpCjZA6ZyFyclLQGl5xzu8Bsz0JnFndmqYQQEg/96ugl/ZMaQ3nmOlI5KtVW1MPa+0FQYv8PAw==", "signing_algo": "Ed25519", "generation_timestamp": 1783476777, "identifier": "468b7b68-47a2-4100-9f0d-e2ce5e547306"}</recraft-signature></metadata></svg>